<svg xmlns="http://www.w3.org/2000/svg" xmlns:xlink="http://www.w3.org/1999/xlink" viewBox="0,0,256,256" width="48px" height="48px" fill-rule="nonzero"><g fill="none" fill-rule="nonzero" stroke="none" stroke-width="1" stroke-linecap="butt" stroke-linejoin="miter" stroke-miterlimit="10" stroke-dasharray="" stroke-dashoffset="0" font-family="none" font-weight="none" font-size="none" text-anchor="none" style="mix-blend-mode: normal"><g transform="scale(5.33333,5.33333)"><circle cx="24" cy="24" r="20" fill="#00509d"></circle><path d="M19.757,26.828l7.071,-7.071l1.414,1.414l-7.071,7.071z" fill="#ffffff"></path><path d="M24.707,16.222c-0.503,0.503 -2.325,2.325 -2.828,2.828l1.414,1.414c0.546,-0.546 2.283,-2.283 2.828,-2.828c1.172,-1.172 3.071,-1.172 4.243,0c1.172,1.172 1.172,3.071 0,4.243c-0.546,0.546 -2.283,2.283 -2.828,2.828l1.414,1.414c0.503,-0.503 2.325,-2.325 2.828,-2.828c1.952,-1.952 1.952,-5.119 0,-7.071c-1.952,-1.952 -5.119,-1.952 -7.071,0zM23.293,31.778c0.503,-0.503 2.325,-2.325 2.828,-2.828l-1.414,-1.414c-0.546,0.546 -2.283,2.283 -2.828,2.828c-1.172,1.172 -3.071,1.172 -4.243,0c-1.172,-1.172 -1.172,-3.071 0,-4.243c0.546,-0.546 2.283,-2.283 2.828,-2.828l-1.414,-1.414c-0.503,0.503 -2.325,2.325 -2.828,2.828c-1.952,1.952 -1.952,5.119 0,7.071c1.952,1.952 5.119,1.952 7.071,0z" fill="#ffffff"></path></g></g></svg>